<svg id="Layer_1" data-name="Layer 1" xmlns="http://www.w3.org/2000/svg" viewBox="0 0 74.7 32.6"><defs><style>.cls-1{stroke:#000;stroke-width:0.4px;}.cls-2{fill:#d31245;}</style></defs><polygon points="20.06 12.87 7.45 12.87 7.45 0 0 0 0 32.38 7.45 32.38 7.45 19.51 20.06 19.51 20.06 32.38 27.51 32.38 27.51 6.84 20.06 6.84 20.06 12.87"/><path class="cls-1" d="M276.25,397.06c-.45-3.06-3.49-5.38-7-5.38-6.32,0-8.69,5.16-8.69,10.54,0,5.13,2.37,10.29,8.69,10.29,4.29,0,6.71-2.84,7.25-6.89h6.8c-.71,7.67-6.22,12.57-14.05,12.57-9.9,0-15.72-7.1-15.72-16,0-9.12,5.82-16.23,15.72-16.23,7,0,12.93,4,13.79,11.07Z" transform="translate(-208.84 -385.79)"/><polygon points="59.74 0 50.81 0 52.68 2.88 59.74 0"/><polyline class="cls-2" points="20.05 0 20.05 6.84 32.8 6.84 32.8 32.38 40.62 32.38 40.62 6.86 53.43 6.86 53.43 0"/></svg>