<?xml version="1.0" encoding="utf-8"?>
<!-- Generator: Adobe Illustrator 15.1.0, SVG Export Plug-In . SVG Version: 6.00 Build 0)  -->
<!DOCTYPE svg PUBLIC "-//W3C//DTD SVG 1.1//EN" "http://www.w3.org/Graphics/SVG/1.1/DTD/svg11.dtd">
<svg version="1.1" id="Layer_1" xmlns="http://www.w3.org/2000/svg" xmlns:xlink="http://www.w3.org/1999/xlink" x="0px" y="0px"
	 width="612px" height="792px" viewBox="0 0 612 792" enable-background="new 0 0 612 792" xml:space="preserve">
<polygon points="228.896,398.666 216.294,398.666 216.294,385.797 208.84,385.797 208.84,418.172 216.294,418.172 216.294,405.303 
	228.896,405.303 228.896,418.172 236.35,418.172 236.35,392.633 228.896,392.633 "/>
<path stroke="#000000" stroke-width="0.4" d="M276.251,397.059c-0.448-3.056-3.492-5.38-6.984-5.38
	c-6.312,0-8.686,5.166-8.686,10.546c0,5.123,2.373,10.287,8.686,10.287c4.297,0,6.715-2.84,7.252-6.887h6.805
	c-0.716,7.662-6.223,12.57-14.057,12.57c-9.895,0-15.714-7.105-15.714-15.971c0-9.126,5.819-16.23,15.714-16.23
	c7.028,0,12.938,3.961,13.789,11.064H276.251z"/>
<path d="M308.091,406.232c0,6.66-3.87,12.285-10.979,12.285c-7.11,0-10.979-5.625-10.979-12.285s3.869-12.283,10.979-12.283
	C304.221,393.95,308.091,399.572,308.091,406.232z M288.966,406.232c0,4.949,2.701,9.9,8.146,9.9s8.145-4.951,8.145-9.9
	s-2.7-9.898-8.145-9.898S288.966,401.283,288.966,406.232z"/>
<path d="M310.477,394.624h2.835v4.005h0.09c1.035-2.791,4.14-4.679,7.425-4.679c6.525,0,8.505,3.417,8.505,8.953v14.939h-2.835
	v-14.488c0-4.006-1.305-7.019-5.895-7.019c-4.5,0-7.2,3.419-7.29,7.962v13.545h-2.835V394.624z"/>
<path d="M381.835,394.624h2.609v5.445h0.09c1.44-3.734,4.59-5.939,8.775-5.759v2.833c-5.131-0.269-8.641,3.51-8.641,8.326v12.373
	h-2.834V394.624z"/>
<polygon points="268.582,385.797 259.649,385.797 261.524,388.67 "/>
<polyline fill="#D31245" points="228.895,385.797 228.895,392.631 241.636,392.631 241.636,418.172 249.459,418.172 
	249.459,392.655 262.27,392.655 262.27,385.797 "/>
<g>
	<path fill="#D31245" d="M398.004,376.18c-8.137,2.316-20.34,5.173-29.723,12.912c-9.695-8.49-25.277-12.171-28.957-12.921
		c-3.27-0.667-8.57-1.451-3.965,0.216c11.227,3.583,29.123,18.654,32.217,23.406c0.406,0.623,0.805,0.623,1.287,0.02
		c3.727-4.673,13.576-13.427,31.746-23.468C402.553,375.337,402.695,374.844,398.004,376.18z"/>
</g>
<path d="M374.978,396.653l-1.922,1.87c1.871,1.904,2.81,4.803,2.81,7.709c0,4.949-2.699,9.9-8.145,9.9s-8.145-4.951-8.145-9.9
	c0-3.268,1.186-6.527,3.553-8.369l-1.963-1.813c-2.897,2.229-4.426,6-4.426,10.182c0,6.66,3.871,12.285,10.98,12.285
	s10.98-5.625,10.98-12.285C378.701,402.404,377.415,398.926,374.978,396.653z"/>
<path d="M350.479,387.338v11.695h-0.09c-1.215-3.33-4.59-5.083-8.055-5.083c-7.063,0-10.438,5.712-10.438,12.283
	s3.375,12.285,10.438,12.285c3.375,0,7.065-2.07,8.28-5.086h0.09v4.41h2.61v-28.398L350.479,387.338z M342.335,416.133
	c-5.399,0-7.604-5.086-7.604-9.9s2.205-9.898,7.604-9.898c6.03,0,8.145,5.083,8.145,9.898S348.365,416.133,342.335,416.133z"/>
</svg>
